<svg version="1.1" id="Layer_1" xmlns="http://www.w3.org/2000/svg" x="0" y="0" viewBox="0 0 200 75" xml:space="preserve"><style>.st0{fill:#fff}</style><path class="st0" d="M3 30.6c-.6-.3-.7-.5-.7-1.3 0-2.1.2-4.3.2-4.9 0-.6.2-1 .5-1s.4.3.4.6c0 .5.2 1.3.3 1.9.8 2.8 3.1 3.8 5.4 3.8 3.4 0 5.1-2.3 5.1-4.3 0-1.9-.6-3.6-3.7-6L8.6 18C4.5 14.8 3 12.1 3 9.1 3 4.9 6.5 2 11.7 2c1.4 0 2.6.2 3.5.3.6.1 1.1.2 1.5.3.3.1.5.2.5.5 0 .5-.2 1.6-.2 4.5 0 .8-.1 1.1-.4 1.1-.3 0-.4-.2-.4-.7 0-.3-.2-1.5-1-2.5-.6-.7-1.7-1.9-4.1-1.9-2.8 0-4.5 1.6-4.5 3.9 0 1.7.9 3.1 4 5.4l1.1.8c4.6 3.4 6.2 6 6.2 9.6 0 2.2-.8 4.8-3.6 6.6-1.9 1.2-4 1.5-6 1.5-2 .2-3.7-.1-5.3-.8zM22.5 16.8C22.5 10.3 26.8 2 38.1 2c9.4 0 15.3 5.5 15.3 14.1s-6 15.5-15.6 15.5c-10.9 0-15.3-8.2-15.3-14.8zm25.6.7C48.1 9 43.2 3.8 37 3.8c-4.3 0-9.3 2.4-9.3 11.8 0 7.9 4.3 14.1 11.6 14.1 2.7 0 8.8-1.3 8.8-12.2zM88.3 26.2c.3 2.4.7 3.5 1.9 3.8 1.1.3 1.9.4 2.3.4.3 0 .6 0 .6.3s-.5.4-1 .4c-.9 0-6.2-.1-7.7-.2-.9-.1-1.1-.2-1.1-.4s.2-.3.4-.4c.2-.1.3-.6.2-1.6l-2.3-16.8-8.3 17.4c-.9 1.8-1.1 2.1-1.4 2.1s-.7-.8-1.3-1.9c-.9-1.7-3.9-7.5-4.3-8.6-.3-.8-2.7-5.8-4-8.6l-2 15.3c-.1.7-.1 1.2-.1 1.8 0 .7.5 1.1 1.1 1.2.7.2 1.2.2 1.6.2.3 0 .6.1.6.3 0 .3-.3.4-.9.4-1.6 0-3.3-.1-4-.1-.7 0-2.5.1-3.7.1-.4 0-.7-.1-.7-.4 0-.2.2-.3.6-.3.3 0 .6 0 1.1-.1 1.1-.2 1.4-1.7 1.5-3l3.7-24.6c.1-.6.3-1 .6-1s.5.2 1 1.2L73 24.4 83.3 2.5c.3-.6.5-.9.8-.9.3 0 .6.4.7 1.2l3.5 23.4z"/><path class="st0" d="M126.2 26.2c.3 2.4.7 3.5 1.9 3.8 1.1.3 1.9.4 2.3.4.3 0 .6 0 .6.3s-.5.4-1 .4c-.9 0-6.2-.1-7.7-.2-.9-.1-1.1-.2-1.1-.4s.2-.3.4-.4c.2-.1.3-.6.2-1.6l-2.3-16.8-8.3 17.4c-.9 1.8-1.1 2.1-1.4 2.1s-.7-.8-1.3-1.9c-.9-1.7-3.9-7.5-4.3-8.6-.3-.8-2.7-5.8-4-8.6l-2 15.3c-.2.5-.2.9-.2 1.6 0 .7.5 1.1 1.1 1.2.7.2 1.2.2 1.6.2.3 0 .6.1.6.3 0 .3-.3.4-.9.4-1.6 0-3.3-.1-4-.1-.7 0-2.5.1-3.7.1-.4-.1-.7-.1-.7-.5 0-.2.2-.3.6-.3.3 0 .6 0 1.1-.1 1.1-.2 1.4-1.7 1.5-3L99 2.6c.1-.6.3-1 .6-1s.5.2 1 1.2L111 24.1l10.3-21.6c.3-.6.5-.9.8-.9.3 0 .6.4.7 1.2l3.4 23.4zM134.9 13.4c0-5.7 0-6.8-.1-8-.1-1.3-.4-1.9-1.6-2.2-.3-.1-.9-.1-1.5-.1-.4 0-.6-.1-.6-.3s.3-.3.8-.3c1.7 0 3.5.1 5.4.1h9.4c.7-.1 1.3-.2 1.6-.2.2 0 .4-.2.6-.2.2 0 .2.2.2.3 0 .3-.2.7-.3 2.5 0 .4-.1 2-.2 2.5 0 .2-.1.4-.4.4-.3 0-.3-.2-.3-.7 0-.2 0-.8-.2-1.2-.3-.7-.6-1.1-2.5-1.4-.6-.1-4.6-.2-5.4-.2-.2 0-.3.1-.3.4v9.6c0 .3 0 .4.3.4.8 0 5.2 0 6-.1.9-.1 1.5-.2 1.8-.6.3-.3.4-.5.6-.5.2 0 .3.1.3.3s-.2.8-.3 2.8c0 .8-.2 2.3-.2 2.5 0 .3 0 .7-.3.7s-.3-.4-.3-.6c0-.4 0-.6-.2-1.1-.2-.8-.7-1.3-2.1-1.5-.7-.1-4.5-.1-5.4-.1-.2 0-.2.2-.2.4v8.9c.1 2.6.7 3.2 4.5 3.2 1 0 2.6 0 3.6-.5s1.4-1.2 1.7-2.8c.1-.4.2-.6.4-.6.3 0 .3.3.3.7 0 .9-.3 3.4-.5 4.2-.3 1-.6 1-2 1-3.4 0-6.7-.2-10.5-.2-1.5 0-3.1.1-4.8.1-.5 0-.8-.1-.8-.4 0-.2.2-.3.6-.3.6 0 1-.1 1.4-.2.8-.2.9-1 1.1-2.1.2-1.6.2-4.6.2-8v-6.6zM156.5 13.4c0-5.7 0-6.8-.1-8-.1-1.3-.4-1.9-1.6-2.2-.3-.1-.9-.1-1.5-.1-.4 0-.6-.1-.6-.3s.3-.3.8-.3c2 0 4.4.1 5.2.1 1.3 0 4.2-.1 5.3-.1 2.4 0 4.9.2 7 1.6 1.1.7 2.6 2.6 2.6 5.2 0 2.8-1.1 5.3-4.9 8.4 3.4 4.2 6 7.6 8.2 10 2.1 2.2 3.6 2.5 4.2 2.6.4.1.8.1 1.1.1.3 0 .5.1.5.3 0 .3-.3.4-.7.4h-4c-2.1 0-3.1-.2-4-.7-1.6-.9-3.1-2.6-5.2-5.6-1.5-2.1-3.2-4.6-3.7-5.2-.2-.2-.4-.3-.7-.3l-3.2-.1c-.2 0-.3.1-.3.3v.5c0 3.5 0 6.5.2 8.1.1 1.1.3 1.9 1.5 2.1.6.1 1.4.2 1.9.2.3 0 .5.1.5.3 0 .3-.3.4-.8.4-2.2 0-5-.1-5.6-.1-.7 0-3.1.1-4.6.1-.5 0-.8-.1-.8-.4 0-.2.2-.3.6-.3.6 0 1-.1 1.4-.2.8-.2.9-1 1.1-2.1.2-1.6.2-4.6.2-8v-6.7zm4.4 3c0 .4.1.6.3.7.8.3 1.9.4 2.9.4 1.5 0 2-.2 2.7-.6 1.1-.8 2.2-2.6 2.2-5.7 0-5.4-3.6-6.9-5.8-6.9-.9 0-1.6 0-2 .2-.3.1-.3.2-.3.5v11.4z"/><path class="st0" d="M181.9 30.6c-.6-.3-.7-.5-.7-1.3 0-2.1.2-4.3.2-4.9 0-.6.2-1 .5-1s.4.3.4.6c0 .5.2 1.3.3 1.9.8 2.8 3.1 3.8 5.4 3.8 3.4 0 5.1-2.3 5.1-4.3 0-1.9-.6-3.6-3.7-6l-1.7-1.4c-4.2-3.2-5.6-5.9-5.6-9 0-4.2 3.5-7.1 8.7-7.1 1.4 0 2.6.2 3.5.3.6.1 1.1.2 1.5.3.3.1.5.2.5.5 0 .5-.2 1.6-.2 4.5 0 .8-.1 1.1-.4 1.1-.3 0-.4-.2-.4-.7 0-.3-.2-1.5-1-2.5-.6-.7-1.7-1.9-4.1-1.9-2.8 0-4.5 1.6-4.5 3.9 0 1.7.9 3.1 4 5.4l1.1.8c4.6 3.4 6.2 6 6.2 9.6 0 2.2-.8 4.8-3.6 6.6-1.9 1.2-4 1.5-6 1.5-2.1.3-3.8 0-5.5-.7zM2.9 62.7c-.6-.3-.7-.4-.7-1.2 0-2 .1-4.2.2-4.8 0-.5.1-1 .4-1 .3 0 .4.3.4.6 0 .5.1 1.2.3 1.9.8 2.7 3 3.7 5.2 3.7 3.3 0 4.9-2.2 4.9-4.2 0-1.8-.5-3.5-3.6-5.9l-1.7-1.3c-4-3.1-5.4-5.7-5.4-8.7 0-4 3.4-6.9 8.4-6.9 1.4 0 2.5.1 3.4.3.6.1 1.1.2 1.5.3.3.1.5.2.5.4 0 .5-.1 1.5-.1 4.4 0 .8-.1 1.1-.4 1.1-.3 0-.4-.2-.4-.7 0-.3-.2-1.5-1-2.4-.5-.7-1.6-1.8-4-1.8-2.7 0-4.4 1.6-4.4 3.8 0 1.7.8 3 3.9 5.3l1 .8c4.4 3.3 6 5.9 6 9.3 0 2.1-.8 4.6-3.4 6.4-1.8 1.2-3.9 1.5-5.8 1.5s-3.6-.3-5.2-.9zM23.2 59.6c-3.6-3.1-4.5-7.2-4.5-10.8 0-2.5.8-6.8 4.3-10 2.6-2.4 6.1-3.9 11.6-3.9 2.3 0 3.6.1 5.3.4 1.4.2 2.7.5 3.8.6.4 0 .4.2.4.4 0 .3-.1.7-.2 2-.1 1.2 0 3.2-.1 4 0 .5-.1.9-.4.9-.3 0-.4-.3-.4-.8 0-1.1-.5-2.4-1.4-3.4-1.2-1.3-4.1-2.3-7.4-2.3-3.2 0-5.3.8-6.9 2.3-2.7 2.5-3.4 5.9-3.4 9.5 0 8.7 6.6 13 11.5 13 3.3 0 5.2-.4 6.7-2 .6-.7 1.1-1.8 1.2-2.4.1-.6.2-.7.5-.7s.3.3.3.5c0 .4-.4 3.6-.8 4.9-.2.6-.3.8-1 1.1-1.5.6-4.2.8-6.6.8-5-.1-9.2-1.2-12.5-4.1zM67.1 47.1c.1 0 .2-.1.2-.3V46c0-5.6 0-6.6-.1-7.8-.1-1.2-.4-1.8-1.6-2.1-.3-.1-.9-.1-1.4-.1-.4 0-.6-.1-.6-.3 0-.3.3-.3.8-.3 2 0 4.3.1 5.3.1.9 0 3.2-.1 4.6-.1.5 0 .8.1.8.3 0 .3-.2.3-.7.3-.3 0-.6 0-1.1.1-1 .2-1.3.8-1.4 2.1-.1 1.2-.1 2.2-.1 7.8v6.4c0 3.4 0 6.3.2 7.8.1 1 .3 1.8 1.4 2 .5.1 1.3.1 1.9.1.4 0 .6.1.6.3 0 .3-.3.4-.7.4-2.4 0-4.7-.1-5.7-.1-.8 0-3.1.1-4.6.1-.5 0-.8-.1-.8-.4 0-.2.1-.3.6-.3s1-.1 1.3-.1c.7-.1.9-1 1.1-2 .2-1.5.2-4.4.2-7.8v-3.2c0-.1-.1-.2-.2-.2h-14c-.1 0-.2 0-.2.2v3.2c0 3.4 0 6.3.2 7.8.1 1 .3 1.8 1.4 2 .5.1 1.3.1 1.9.1.4 0 .6.1.6.3 0 .3-.3.4-.7.4-2.4 0-4.7-.1-5.7-.1-.8 0-3.1.1-4.6.1-.5 0-.7-.1-.7-.4 0-.2.1-.3.6-.3s1-.1 1.3-.1c.7-.1.9-1 1.1-2 .2-1.5.2-4.4.2-7.8V46c0-5.6 0-6.6-.1-7.8-.1-1.2-.4-1.8-1.6-2.1-.3-.1-.9-.1-1.4-.1-.4 0-.6-.1-.6-.3 0-.3.3-.3.8-.3 2 0 4.3.1 5.3.1.9 0 3.2-.1 4.6-.1.5 0 .8.1.8.3 0 .3-.3.3-.7.3-.3 0-.8 0-1.1.1-1 .1-1.3.8-1.4 2.1-.1 1.3-.1 2.3-.1 7.8v.8c0 .2.1.3.2.3h13.9z"/><path class="st0" d="M76.7 39c-.4-1.4-.8-2.2-1.4-2.6-.4-.3-1.1-.3-1.5-.3-.4 0-.6 0-.6-.3s.3-.3.8-.3c1.9 0 3.9.1 4.2.1s1.9-.1 4.1-.1c.5 0 .8.1.8.3 0 .3-.3.3-.7.3-.3 0-.7 0-.9.1-.3.1-.4.4-.4.8 0 .5.4 1.7.8 3.4.6 2.4 4 13.5 4.7 15.7l7.2-19.2c.4-1 .6-1.3.9-1.3.4 0 .6.5 1.1 1.7l7.7 18.5c.7-2.6 3.6-12.3 4.9-16.5.3-.8.4-1.6.4-2.1 0-.6-.3-1.1-1.8-1.1-.4 0-.6-.1-.6-.3 0-.3.3-.3.8-.3 1.9 0 3.5.1 3.8.1.3 0 1.8-.1 3-.1.4 0 .7.1.7.3 0 .3-.2.4-.5.4-.4 0-.9 0-1.3.2-.9.3-1.3 1.8-2 3.9-1.7 4.6-5.5 16.2-7.3 21.7-.4 1.3-.6 1.7-1.1 1.7-.4 0-.6-.4-1.1-1.8l-7.6-18.4c-.7 2-5.6 14.9-7.2 18.3-.7 1.5-.9 1.9-1.3 1.9s-.5-.4-.8-1.4L76.7 39zM114.7 53.5c-.2 0-.3.1-.3.3l-2 5.2c-.4.9-.5 1.8-.5 2.2 0 .7.3 1.1 1.5 1.1h.5c.4 0 .5.1.5.3 0 .3-.2.4-.6.4-1.2 0-2.7-.1-3.9-.1-.4 0-2.4.1-4.3.1-.5 0-.7-.1-.7-.4 0-.2.2-.3.5-.3s.8 0 1.1-.1c1.7-.2 2.4-1.5 3.1-3.3l9.2-23c.4-1.1.7-1.5 1-1.5.3 0 .5.3.9 1.2.9 2 6.7 16.9 9.1 22.5 1.4 3.3 2.5 3.8 3.2 4 .5.1 1.1.1 1.5.1.3 0 .5.1.5.3 0 .3-.3.4-1.7.4-1.3 0-4.2 0-7.2-.1-.7 0-.8-.1-.8-.3 0-.2.1-.3.5-.3.3-.1.5-.4.3-.8l-2.9-7.8c-.1-.2-.2-.3-.4-.3h-8.1zm7.5-1.8c.2 0 .2-.1.2-.2l-3.3-9c-.1-.3-.3-.4-.4 0l-3.4 9c0 .1 0 .3.1.3h6.8z"/><path class="st0" d="M135.2 46c0-5.6 0-6.6-.1-7.8-.1-1.2-.4-1.8-1.6-2.1-.3-.1-.9-.1-1.4-.1-.4 0-.6-.1-.6-.3 0-.3.3-.3.8-.3 1.9 0 4.2.1 5 .1 1.2 0 4-.1 5.2-.1 2.3 0 4.8.2 6.7 1.6 1 .7 2.5 2.6 2.5 5 0 2.7-1.1 5.2-4.8 8.2 3.3 4.1 5.8 7.4 7.9 9.7 2 2.1 3.5 2.4 4.1 2.5.4.1.7.1 1 .1.3 0 .4.1.4.3 0 .3-.3.4-.7.4H156c-2 0-3-.2-3.9-.7-1.6-.8-3-2.6-5-5.4-1.5-2-3.1-4.5-3.6-5-.2-.2-.4-.3-.7-.3l-3.1-.1c-.2 0-.3.1-.3.3v.5c0 3.4 0 6.3.2 7.8.1 1.1.3 1.9 1.4 2 .5.1 1.4.1 1.8.1.3 0 .4.1.4.3 0 .3-.3.4-.7.4-2.1 0-4.8-.1-5.4-.1-.7 0-3 .1-4.5.1-.5 0-.7-.1-.7-.4 0-.2.1-.3.6-.3s1-.1 1.3-.1c.7-.1.9-1 1.1-2 .2-1.5.2-4.4.2-7.8V46zm4.3 2.9c0 .4.1.5.3.7.8.3 1.9.4 2.8.4 1.5 0 1.9-.1 2.6-.6 1.1-.8 2.2-2.5 2.2-5.5 0-5.2-3.4-6.7-5.6-6.7-.9 0-1.6 0-1.9.1-.3.1-.3.2-.3.5v11.1z"/><path class="st0" d="M196.6 56.6c-.2 0-.3.2-.4.6-.1.5-.3 1.2-.7 1.8-.6 1.1-2 2-5.7 2h-9c5.2-7.9 10.7-16.2 15.8-24.4.1-.3.3-.5.3-.7 0-.2-.3-.3-.6-.3h-36.7c-1.2 0-2.6-.1-3.7-.2-.9-.1-1.3-.4-1.6-.4-.2 0-.3.2-.4.7-.1.3-.8 3.6-.8 4.2 0 .4.1.6.3.6.2 0 .3-.1.4-.4.1-.3.3-.7.6-1.3.5-.8 1.4-1 3.5-1.1 1.8 0 4.1-.1 5.5-.1v15c0 3.4 0 6.3-.2 7.8-.1 1.1-.3 1.9-1.1 2-.3.1-.8.1-1.3.1-.4 0-.6.1-.6.3 0 .3.3.4.7.4 1.5 0 3.8-.1 4.6-.1 1 0 3.3.1 5.7.1.4 0 .7-.1.7-.4 0-.2-.2-.3-.6-.3-.5 0-1.4-.1-1.9-.1-1.1-.1-1.3-1-1.4-2-.2-1.6-.2-4.5-.2-7.8v-15c2.2 0 3.7.1 4.6.1 1.7 0 2.9.4 3.4.8.6.4.6 1.7.9 1.7.3 0 .3-.4.8-1.1.3-.4.6-.6.9-.8.9-.6 3.2-.7 5.1-.7h7.2c-4.9 7.7-10.3 16-15.5 24-.4.7-.5.8-.5 1.1 0 .3.2.4.6.4 7.4 0 13.5.2 19.6.2.7 0 .9-.3 1.1-1 .3-.9.7-3.3.7-4.5.3-.9.2-1.2-.1-1.2zM0 72.4h200v1H0z"/></svg>